<svg width="128" height="128" viewBox="0 0 128 128" fill="none" xmlns="http://www.w3.org/2000/svg">
  <defs>
    <linearGradient id="gradient1" x1="0%" y1="0%" x2="100%" y2="100%">
      <stop offset="0%" style="stop-color:#7c3aed;stop-opacity:1" />
      <stop offset="100%" style="stop-color:#a855f7;stop-opacity:1" />
    </linearGradient>
    <linearGradient id="gradient2" x1="0%" y1="0%" x2="100%" y2="100%">
      <stop offset="0%" style="stop-color:#06b6d4;stop-opacity:1" />
      <stop offset="100%" style="stop-color:#0891b2;stop-opacity:1" />
    </linearGradient>
  </defs>

  <!-- Background circle -->
  <circle cx="64" cy="64" r="60" fill="url(#gradient1)" opacity="0.1"/>

  <!-- Main icon - Modern terminal/code representation -->
  <rect x="24" y="32" width="80" height="64" rx="8" fill="url(#gradient1)" opacity="0.9"/>
  <rect x="28" y="36" width="72" height="56" rx="4" fill="#ffffff" opacity="0.95"/>

  <!-- Terminal prompt lines -->
  <rect x="32" y="44" width="4" height="4" rx="1" fill="url(#gradient2)"/>
  <rect x="40" y="44" width="32" height="4" rx="2" fill="#e2e8f0"/>

  <rect x="32" y="54" width="4" height="4" rx="1" fill="url(#gradient2)"/>
  <rect x="40" y="54" width="24" height="4" rx="2" fill="#e2e8f0"/>

  <rect x="32" y="64" width="4" height="4" rx="1" fill="url(#gradient2)"/>
  <rect x="40" y="64" width="40" height="4" rx="2" fill="#e2e8f0"/>

  <!-- Cursor -->
  <rect x="84" y="64" width="8" height="4" rx="1" fill="url(#gradient1)" opacity="0.8"/>

  <!-- Neo vim icon elements -->
  <path d="M32 76 L48 84 L48 76 Z" fill="url(#gradient1)" opacity="0.7"/>
  <path d="M52 76 L52 84 L68 76 Z" fill="url(#gradient2)" opacity="0.7"/>

  <!-- Decorative elements -->
  <circle cx="88" cy="48" r="2" fill="url(#gradient1)" opacity="0.6"/>
  <circle cx="94" cy="48" r="2" fill="url(#gradient2)" opacity="0.6"/>
  <circle cx="100" cy="48" r="2" fill="#10b981" opacity="0.6"/>
</svg>
